<svg width="209" height="160" viewBox="0 0 209 160" fill="none" xmlns="http://www.w3.org/2000/svg">
<path fill-rule="evenodd" clip-rule="evenodd" d="M99.4534 37.0227C122.336 47.8126 141.276 63.2702 156.276 83.3959C165.584 91.1487 176.155 96.0796 187.99 98.1874C190.778 109.699 186.69 112.941 175.73 107.915C167.713 104.239 160.232 99.6827 153.287 94.2454C139.654 82.7831 126.3 71.03 113.226 58.9853C91.3784 42.7178 67.2422 31.3348 40.8136 24.8359C39.2367 21.8502 39.4774 18.9796 41.5335 16.2248C61.1081 22.9671 80.4142 29.9006 99.4534 37.0227Z" fill="#9D806C"/>
<path fill-rule="evenodd" clip-rule="evenodd" d="M86.5879 58.1456C96.4128 63.8292 105.96 69.9447 115.23 76.4955C133.946 94.8758 155.011 109.816 178.425 121.32C176.83 126.878 174.322 131.987 170.9 136.647C146.144 124.046 125.27 106.808 108.281 84.9328C84.1351 67.4769 57.4811 55.7675 28.3201 49.8053C28.6718 45.4332 30.682 42.1327 34.3508 39.904C52.5721 44.2383 69.9849 50.3191 86.5879 58.1456Z" fill="#D19167"/>
<path fill-rule="evenodd" clip-rule="evenodd" d="M71.8865 76.3402C96.0128 87.9416 116.275 104.203 132.669 125.126C139.609 130.78 147.357 134.897 155.916 137.475C158.551 138.585 161.201 138.69 163.867 137.793C166.892 149.094 162.977 153.044 152.124 149.645C129.784 136.963 109.829 121.189 92.2596 102.323C69.105 84.6514 43.4268 72.3291 15.2269 65.3596C14.3982 62.4114 14.8572 59.6757 16.607 57.1505C35.342 63.1317 53.7684 69.5275 71.8865 76.3402Z" fill="#FFCD70"/>
</svg>
