<svg width="59" height="57" viewBox="0 0 59 57" fill="none" xmlns="http://www.w3.org/2000/svg">
<path fill-rule="evenodd" clip-rule="evenodd" d="M22.4045 0.371775C26.5409 -0.740101 29.3833 0.642009 30.9317 4.51805C31.2764 8.31879 31.2764 12.1196 30.9317 15.9203C30.4614 18.5259 30.1172 21.1174 29.8981 23.6946C33.6976 18.4999 38.4345 14.44 44.11 11.5149C46.4749 10.7497 48.8868 10.5769 51.3452 10.9966C55.9927 13.766 56.1648 16.8757 51.862 20.3257C46.0521 23.9288 39.8505 26.6934 33.2572 28.6183C41.0247 28.8774 48.4325 30.6049 55.4795 33.8011C58.8563 35.8266 59.8041 38.6772 58.3219 42.3528C56.2439 45.7564 53.2294 47.0521 49.278 46.24C43.8593 44.4296 39.4666 41.2333 36.0996 36.6517C37.2598 38.9788 38.4655 41.3976 39.7172 43.9077C42.7663 54.1505 39.0624 58.3834 28.6061 56.6057C27.6355 55.8059 26.8603 54.8559 26.2805 53.7551C25.5657 51.3813 25.0489 48.9625 24.7301 46.4991C23.5756 52.5081 20.0443 55.3587 14.1357 55.0508C8.96724 52.463 7.50315 48.4033 9.74295 42.8711C11.8194 38.5414 14.8344 34.9999 18.7869 32.2463C14.1228 32.764 9.47163 32.5915 4.83337 31.728C0.638525 29.9663 -0.82608 26.9432 0.440591 22.658C1.06798 21.8553 1.84318 21.2506 2.76618 20.844C5.52226 20.4985 8.27886 20.4985 11.0349 20.844C15.0634 21.6397 19.0257 22.5035 22.9213 23.4354C19.5347 17.1359 18.4148 10.4846 19.5621 3.48148C20.265 2.17406 21.2122 1.13749 22.4045 0.371775Z" fill="#EDC070"/>
</svg>
