<svg width="87" height="76" viewBox="0 0 87 76" fill="none" xmlns="http://www.w3.org/2000/svg">
<path fill-rule="evenodd" clip-rule="evenodd" d="M12.4 8.49928C13.7636 7.8726 15.1657 7.77379 16.6049 8.20281C22.5025 12.6228 27.0687 18.1775 30.3034 24.8685C33.1383 30.6688 35.9738 36.4688 38.8087 42.269C41.2771 45.7602 44.4255 48.4149 48.2545 50.2345C50.8033 50.0546 52.2084 48.7782 52.4693 46.4049C46.9674 34.1998 41.3234 22.0656 35.5362 10.0011C34.711 7.34571 34.7306 4.72337 35.5949 2.13343C38.0031 -0.542942 40.4764 -0.594522 43.0163 1.97877C44.2517 3.80613 45.563 5.5771 46.9495 7.29195C50.9469 15.7133 54.9449 24.1345 58.9422 32.5559C60.5279 35.7703 62.8239 38.2808 65.8303 40.0873C67.3479 39.8346 68.4109 38.9711 69.018 37.4974C68.2689 31.6998 66.8229 26.0677 64.6787 20.6018C63.3231 16.3435 63.7848 12.348 66.065 8.61654C67.2753 7.43282 68.6283 7.22488 70.1245 7.99242C72.0968 9.58629 73.7243 11.4782 75.0072 13.6687C78.7401 20.9001 82.0339 28.3271 84.888 35.9484C88.1301 44.9086 85.3939 51.4803 76.6804 55.6638C64.251 61.9948 51.61 67.8628 38.7582 73.2661C32.3498 75.6055 25.9525 75.698 19.5651 73.5443C16.5718 71.7798 13.9946 69.5242 11.8341 66.7787C7.15297 57.8395 3.30445 48.568 0.287216 38.9646C0.00774026 36.9744 0.050079 34.9952 0.413574 33.0273C2.36418 31.2816 4.47342 30.9994 6.74027 32.1819C8.43177 33.7097 9.96245 35.3834 11.3323 37.2029C14.7606 43.0309 18.3518 48.7569 22.1048 54.3821C23.4313 55.9455 24.8652 57.401 26.4062 58.7478C29.1203 59.7139 30.2442 58.6924 29.7781 55.6841C28.5803 52.6865 27.382 49.6892 26.1842 46.6916C20.6627 36.7427 15.732 26.5137 11.3919 16.0039C10.4441 13.264 10.7805 10.7623 12.4 8.49928Z" fill="#F5864A"/>
</svg>
