<svg width="110" height="54" viewBox="0 0 110 54" fill="none" xmlns="http://www.w3.org/2000/svg">
<path fill-rule="evenodd" clip-rule="evenodd" d="M7.32105e-05 1.11803C4.81007 0.131033 9.81007 -0.202967 15.0001 0.118034C45.0201 0.198036 75.0201 1.03104 105 2.61804C109.36 7.69404 110.86 13.527 109.5 20.118C105.68 21.456 102.18 20.789 99.0001 18.118C98.6701 18.451 98.3301 18.785 98.0001 19.118C102.22 30.326 100.22 40.1596 92.0001 48.618C90.3301 49.2847 88.6701 49.2847 87.0001 48.618C78.5001 42.1581 72.0001 33.991 67.5001 24.118C67.5201 27.188 68.1801 30.188 69.5001 33.118C73.1201 45.5853 68.6201 52.252 56.0001 53.118C42.9601 52.5848 34.7901 45.9182 31.5001 33.118C30.3801 27.515 29.7101 21.849 29.5001 16.118C23.4001 29.071 16.4001 29.404 8.50007 17.118C5.38007 11.885 2.55007 6.55103 7.32105e-05 1.11803Z" fill="#7A7E64"/>
</svg>
