<svg width="81" height="96" viewBox="0 0 81 96" fill="none" xmlns="http://www.w3.org/2000/svg">
<path fill-rule="evenodd" clip-rule="evenodd" d="M26.7784 35.7678C24.2847 37.5137 23.5763 39.7614 24.6526 42.5123C27.6109 44.393 30.7773 45.9108 34.1442 47.0649C29.4281 48.136 27.0475 51.1577 26.9949 56.1283C27.0878 61.8504 29.9201 64.8246 35.4988 65.0525C38.5096 63.3744 40.711 60.9464 42.0887 57.7639C41.309 63.0111 41.9381 68.0226 43.9835 72.7999C46.1249 73.8057 48.0473 73.5009 49.7362 71.8815C48.6954 76.0504 47.0725 79.9611 44.8672 83.6148C41.6106 87.1127 37.9312 87.6434 33.8286 85.2085C32.4093 83.2486 31.6695 81.0642 31.6022 78.6532C28.4508 83.8724 24.0825 85.747 18.5109 84.2828C17.2044 83.2528 16.1663 82.0148 15.3895 80.5673C15.8723 77.4508 17.0016 74.6849 18.7846 72.2718C16.3387 73.7423 13.7702 74.8839 11.0719 75.6943C7.35206 75.4123 5.51173 73.4016 5.5582 69.6638C6.90532 64.2013 10.4716 61.5534 16.2572 61.7192C4.50351 57.1131 4.63026 52.6005 16.6235 48.1765C13.9805 39.4021 17.3679 35.2664 26.7784 35.7678Z" fill="#F48649"/>
<path fill-rule="evenodd" clip-rule="evenodd" d="M26.7784 35.7679C30.3829 35.0293 33.915 35.3621 37.3889 36.7708C40.7698 37.9052 43.9733 39.3052 46.9924 40.9685C57.6914 33.024 68.3904 25.0795 79.0894 17.1349C79.0483 20.9549 78.1708 24.5806 76.4428 28.0078C68.0319 34.4624 59.6283 40.9186 51.2174 47.3733C52.6469 55.6645 52.1486 63.8319 49.7363 71.8815C48.0473 73.5009 46.1249 73.8058 43.9835 72.7999C41.9381 68.0226 41.309 63.0112 42.0888 57.764C40.711 60.9464 38.5097 63.3744 35.4989 65.0525C29.9201 64.8246 27.0879 61.8504 26.9949 56.1283C27.0475 51.1577 29.4282 48.1361 34.1442 47.065C30.7773 45.9109 27.611 44.393 24.6526 42.5123C23.5763 39.7614 24.2848 37.5137 26.7784 35.7679Z" fill="#5A5325"/>
</svg>
