<svg width="64" height="60" viewBox="0 0 64 60" fill="none" xmlns="http://www.w3.org/2000/svg">
<path fill-rule="evenodd" clip-rule="evenodd" d="M27.6314 0C22.3665 0.375789 18.9585 3.13894 17.4078 8.28946C16.9585 10.5906 17.2348 12.8011 18.2367 14.921C14.2368 14.9177 10.1838 15.01 6.07886 15.1973C2.32429 16.2805 0.297796 18.7673 -7.15831e-05 22.6578C0.166823 25.7968 0.995768 28.744 2.48677 31.4999C4.78129 33.9243 7.63673 34.9378 11.0525 34.5394C5.26705 37.5413 2.59619 42.2386 3.0394 48.6315C5.20294 54.4938 9.34767 57.1646 15.4736 56.6446C18.2666 55.3244 20.7534 53.5748 22.9341 51.3946C24.6981 55.3691 27.5535 58.2246 31.4999 59.9604C37.7136 60.376 41.3057 57.5211 42.2762 51.3946C43.4743 55.9063 46.3291 57.6559 50.8419 56.6446C57.0502 53.7107 60.0896 48.8293 59.9603 41.9999C58.9092 39.292 56.975 37.5418 54.1577 36.7499C56.6755 36.6897 59.07 36.1371 61.3419 35.092C63.3479 33.4065 63.9929 31.2883 63.2761 28.7368C61.8033 25.2392 59.6851 22.1997 56.9209 19.6184C55.2409 18.4275 53.6753 18.5197 52.2235 19.8947C52.1312 19.7107 52.0395 19.5261 51.9472 19.3421C53.8637 16.2705 54.6927 12.9548 54.434 9.39472C53.9737 8.93438 53.5128 8.47348 53.0524 8.01314C48.6789 7.08306 44.7182 7.91201 41.1709 10.5C40.3198 8.33422 39.1223 6.40001 37.5788 4.69736C35.5512 4.40115 34.0773 5.23009 33.1578 7.18419C31.6994 4.43099 29.8574 2.03589 27.6314 0Z" fill="#ECBF71"/>
<path fill-rule="evenodd" clip-rule="evenodd" d="M30.9473 19.8947C20.1665 19.8914 16.7585 24.865 20.7236 34.8157C23.369 38.3874 26.7771 40.8742 30.9473 42.2762C35.454 43.2931 39.046 41.9115 41.7235 38.1315C43.7755 35.2954 44.6967 32.1636 44.4867 28.7368C43.2891 26.8026 41.7235 25.237 39.7893 24.0394C36.856 22.4854 33.9088 21.1038 30.9473 19.8947Z" fill="#62602B"/>
</svg>
