<svg width="110" height="105" viewBox="0 0 110 105" fill="none" xmlns="http://www.w3.org/2000/svg">
<path fill-rule="evenodd" clip-rule="evenodd" d="M35.9192 47C35.0292 50.968 34.1892 54.968 33.4192 59C33.6392 50.022 33.7992 41.022 33.9192 32C34.1592 28.706 33.3292 25.706 31.4192 23C30.2892 21.289 28.7892 20.789 26.9192 21.5C23.2992 27.074 21.6292 33.241 21.9192 40C22.0892 48.007 21.9192 56.007 21.4192 64C20.2892 62.155 19.7892 60.155 19.9192 58C17.9792 40.778 14.8092 23.778 10.4192 7.00001C9.45917 4.04401 7.78917 1.71001 5.41917 9.13558e-06C4.19917 0.772009 3.19917 1.77201 2.41917 3.00001C-0.430831 31.639 -0.760828 60.306 1.41917 89C1.88917 94.079 4.05918 98.246 7.91918 101.5C36.1592 105.31 64.4892 105.976 92.9192 103.5C97.9892 102.822 102.989 101.822 107.919 100.5C110.409 97.873 110.569 95.04 108.419 92C101.129 87.338 93.1292 85.338 84.4192 86C78.5692 86.449 72.7392 86.615 66.9192 86.5C77.2392 83.505 86.9092 79.171 95.9192 73.5C97.3492 71.233 97.0192 69.233 94.9192 67.5C89.9392 65.579 84.9392 65.579 79.9192 67.5C70.1892 70.622 60.8592 74.289 51.9192 78.5C59.8692 71.554 66.7092 63.721 72.4192 55C74.4792 51.556 75.9792 47.889 76.9192 44C74.5292 37.567 70.5292 36.4 64.9192 40.5C57.9392 47.142 52.1092 54.642 47.4192 63C49.5892 55.482 51.5892 47.816 53.4192 40C54.2692 35.875 53.9392 31.875 52.4192 28C48.5392 25.28 45.2092 25.946 42.4192 30C39.5592 35.417 37.3892 41.084 35.9192 47Z" fill="#F5864A"/>
</svg>
