<svg width="68" height="64" viewBox="0 0 68 64" fill="none" xmlns="http://www.w3.org/2000/svg">
<path fill-rule="evenodd" clip-rule="evenodd" d="M67.0076 1.02544C66.1351 0.779722 65.2538 0.747877 64.3652 0.92947C62.5 2.10234 60.8346 3.49365 59.3697 5.10351C51.9413 16.5893 43.1811 26.9083 33.0893 36.062C37.0778 30.0124 40.9675 23.7767 44.7592 17.3543C45.5759 15.05 45.9605 12.6764 45.9134 10.2321C44.6827 8.26051 43.1715 8.01561 41.3811 9.49763C35.0251 19.2541 30.4358 29.8065 27.6127 41.1548C23.7107 44.7313 19.5725 47.7153 15.198 50.1069C20.4095 43.9604 24.7104 37.2378 28.1015 29.9379C28.8481 28.0654 29.1629 26.123 29.0458 24.1106C27.4155 22.0091 25.6538 21.9449 23.7611 23.9187C18.4038 32.8509 14.6369 42.4289 12.4597 52.6533C8.70004 55.175 4.79176 57.4208 0.736018 59.3916C0.162743 60.8503 0.384755 62.2152 1.40141 63.4863C10.009 59.7594 17.8043 54.7101 24.7873 48.3385C33.0911 49.9798 41.3219 49.7635 49.4784 47.6884C52.7391 46.2733 53.8969 43.9139 52.9512 40.6097C52.1556 39.4794 51.0381 38.8551 49.5999 38.7377C42.1934 39.3627 35.3021 41.5684 28.9255 45.3545C31.937 41.5327 35.2996 37.8688 39.0126 34.364C49.1047 33.515 58.3645 30.3643 66.7913 24.9117C67.9427 21.2223 66.5863 19.3413 62.7222 19.2686C55.9073 20.753 49.973 23.8885 44.9179 28.6762C44.8447 28.4431 44.7723 28.2094 44.6991 27.9763C47.4603 24.7432 50.1055 21.4063 52.6339 17.966C57.385 14.9232 61.7187 11.4173 65.6346 7.44773C67.1032 5.49958 67.5604 3.35897 67.0076 1.02544Z" fill="#5D562A"/>
</svg>
