<svg width="48" height="45" viewBox="0 0 48 45" fill="none" xmlns="http://www.w3.org/2000/svg">
<path fill-rule="evenodd" clip-rule="evenodd" d="M26.6892 0C30.6003 0.279159 33.1321 2.3318 34.284 6.15791C34.6178 7.86735 34.4125 9.50946 33.6682 11.0842C36.6396 11.0818 39.6504 11.1503 42.6998 11.2895C45.4889 12.0941 46.9944 13.9415 47.2156 16.8316C47.0916 19.1634 46.4759 21.3528 45.3683 23.4001C43.6637 25.2011 41.5425 25.954 39.0051 25.658C43.3029 27.888 45.287 31.3774 44.9577 36.1264C43.3505 40.4813 40.2715 42.4654 35.7209 42.0791C33.646 41.0983 31.7987 39.7986 30.1787 38.1791C28.8683 41.1316 26.7471 43.2528 23.8156 44.5422C19.1996 44.851 16.5311 42.7302 15.8103 38.1791C14.9202 41.5306 12.7995 42.8303 9.44708 42.0791C4.83522 39.8996 2.57731 36.2734 2.67338 31.2001C3.4542 29.1885 4.89105 27.8884 6.98392 27.3001C5.11355 27.2553 3.33474 26.8448 1.64706 26.0685C0.156844 24.8164 -0.322242 23.2428 0.210212 21.3474C1.30427 18.7492 2.87782 16.4913 4.93128 14.5737C6.17928 13.689 7.34231 13.7576 8.42076 14.779C8.48932 14.6423 8.55747 14.5052 8.62603 14.3685C7.20232 12.0868 6.58653 9.62359 6.77865 6.97897C7.12062 6.637 7.463 6.29462 7.80497 5.95265C11.0539 5.26173 13.9961 5.87752 16.6313 7.80002C17.2635 6.19117 18.1531 4.75432 19.2997 3.48948C20.806 3.26944 21.9008 3.88523 22.584 5.33686C23.6673 3.29161 25.0356 1.51238 26.6892 0Z" fill="#ECBF71"/>
<path fill-rule="evenodd" clip-rule="evenodd" d="M24.2261 14.779C32.2346 14.7765 34.7664 18.4713 31.8208 25.8632C29.8556 28.5165 27.3239 30.3639 24.2261 31.4054C20.8782 32.1607 18.2098 31.1344 16.2208 28.3264C14.6965 26.2196 14.0121 23.8931 14.1681 21.3474C15.0578 19.9106 16.2208 18.7476 17.6576 17.8579C19.8367 16.7035 22.0261 15.6772 24.2261 14.779Z" fill="#62602B"/>
</svg>
