<svg width="89" height="88" viewBox="0 0 89 88" fill="none" xmlns="http://www.w3.org/2000/svg">
<path fill-rule="evenodd" clip-rule="evenodd" d="M56.4836 42.3517C54.8883 42.4792 53.3142 42.3478 51.7614 41.9582C54.5294 40.7903 55.9728 38.8227 56.0901 36.0554C52.6515 34.664 49.7662 35.451 47.4327 38.4166C47.2186 36.2491 46.8251 34.15 46.2521 32.1202C47.5255 21.3433 51.1987 11.5053 57.2707 2.60629C61.0807 0.402584 63.179 1.45249 63.567 5.75445C63.3608 7.75904 62.9672 9.72663 62.3864 11.6572C59.3917 18.9452 56.2436 26.0286 52.942 32.9073C57.7279 26.0191 63.1058 19.5922 69.0762 13.6248C71.3099 11.4542 73.9331 10.6671 76.9466 11.2637C77.8982 13.6445 77.5046 15.875 75.7661 17.9535C72.5132 21.9942 68.9716 25.7987 65.1411 29.3656C69.2242 27.324 73.4215 25.225 77.7337 23.0693C80.4828 22.2791 82.9746 22.6726 85.2105 24.2499C85.7355 25.5619 85.7355 26.8731 85.2105 28.1851C76.7514 35.0771 67.1763 39.7994 56.4836 42.3517Z" fill="#EDC172"/>
<path fill-rule="evenodd" clip-rule="evenodd" d="M45.4651 32.1202C43.9776 31.9605 42.797 32.4846 41.9234 33.6943C41.544 36.3758 41.544 38.999 41.9234 41.5647C39.87 39.2012 37.3782 38.0207 34.4465 38.023C32.4112 39.9859 32.4112 41.9535 34.4465 43.9258C22.8157 40.2787 12.4527 34.5065 3.35849 26.611C2.82016 25.6004 2.95159 24.6819 3.75201 23.8563C6.71206 23.2755 9.59813 23.5376 12.4094 24.6434C19.3613 28.1858 25.6577 32.646 31.2984 38.023C31.8233 38.548 32.3475 38.548 32.8724 38.023C25.5097 31.1907 19.3448 23.4518 14.377 14.8054C13.2146 11.2653 14.3951 9.55977 17.9187 9.68964C20.863 11.0575 23.3556 13.0251 25.3956 15.5924C30.2469 22.1445 34.707 28.9658 38.7752 36.0554C37.0957 29.597 35.5216 23.0378 34.053 16.3795C33.528 12.4443 33.528 8.50908 34.053 4.57388C39.12 -2.23007 42.7923 -1.44303 45.0715 6.935C45.4651 15.3256 45.5965 23.721 45.4651 32.1202Z" fill="#EDC172"/>
<path fill-rule="evenodd" clip-rule="evenodd" d="M45.4651 32.1203C45.7272 32.1203 45.99 32.1203 46.2521 32.1203C46.8251 34.15 47.2186 36.2491 47.4327 38.4166C49.7662 35.451 52.6515 34.664 56.0901 36.0555C55.9728 38.8227 54.5294 40.7903 51.7614 41.9583C53.3142 42.3478 54.8883 42.4793 56.4836 42.3518C56.4836 42.8767 56.7457 43.1388 57.2707 43.1388C57.7358 43.6512 58.26 44.1761 58.8447 44.7129C58.5827 44.975 58.3198 45.2378 58.0577 45.4999C55.7414 46.0855 53.3803 46.479 50.9744 46.6805C55.1929 47.3259 57.029 49.5563 56.4836 53.3703C56.2215 53.3703 55.9587 53.3703 55.6966 53.3703C53.2686 52.1567 50.9075 50.9761 48.6132 49.8286C51.7622 52.5479 52.2863 55.5646 50.1873 58.8796C49.9252 58.8796 49.6624 58.8796 49.4003 58.8796C48.4755 59.052 47.6885 58.7899 47.0392 58.0926C46.4599 56.4862 45.8043 54.9121 45.0716 53.3703C44.3868 57.0371 42.4192 58.087 39.1688 56.5185C39.1688 55.9935 39.1688 55.4694 39.1688 54.9444C40.3769 53.1295 41.2953 51.2933 41.9234 49.4351C39.4615 51.8765 36.969 52.1394 34.4465 50.2222C35.04 48.1829 36.352 46.7403 38.3817 45.8935C37.1776 45.012 35.8656 44.3556 34.4465 43.9259C32.4113 41.9535 32.4113 39.9859 34.4465 38.0231C37.3783 38.0207 39.87 39.2013 41.9234 41.5647C41.5441 38.999 41.5441 36.3758 41.9234 33.6944C42.797 32.4847 43.9776 31.9605 45.4651 32.1203Z" fill="#F4894A"/>
<path fill-rule="evenodd" clip-rule="evenodd" d="M34.4465 43.9259C35.8656 44.3556 37.1776 45.012 38.3817 45.8934C36.352 46.7403 35.04 48.1829 34.4465 50.2222C24.5243 51.653 14.5557 52.0465 4.53907 51.4027C0.409477 50.4536 -0.902516 48.0924 0.603876 44.3194C2.00087 43.1868 3.57495 42.3998 5.32611 41.9583C14.6321 41.497 23.8144 42.4155 32.8725 44.7129C33.5934 44.679 34.1183 44.417 34.4465 43.9259Z" fill="#EDC172"/>
<path fill-rule="evenodd" clip-rule="evenodd" d="M56.4836 53.3703C57.029 49.5563 55.1929 47.3258 50.9743 46.6804C53.3803 46.479 55.7414 46.0854 58.0577 45.4999C58.3198 45.2378 58.5827 44.9749 58.8447 44.7128C58.26 44.1761 57.7358 43.6511 57.2707 43.1388C65.8069 41.0901 74.4643 40.4345 83.2429 41.1712C84.817 41.6961 86.3911 42.2203 87.9652 42.7452C89.6589 46.5805 88.3469 48.6795 84.03 49.0416C76.3453 49.6247 68.737 49.3619 61.2059 48.2545C68.3663 50.3779 75.1868 53.2632 81.6689 56.9119C86.1314 60.2938 85.8693 63.1799 80.8818 65.5694C76.9946 65.9385 73.3215 65.1514 69.8633 63.2083C64.79 60.6811 60.3307 57.4015 56.4836 53.3703Z" fill="#EDC172"/>
<path fill-rule="evenodd" clip-rule="evenodd" d="M39.1688 54.9444C30.2949 62.6227 20.1948 68.132 8.86778 71.4722C5.47643 71.4989 4.16443 69.9249 4.93258 66.7499C6.11314 65.5694 7.2937 64.3888 8.47426 63.2083C16.7649 58.013 25.4224 53.6843 34.4465 50.2221C36.969 52.1394 39.4615 51.8765 41.9234 49.4351C41.2953 51.2933 40.3769 53.1294 39.1688 54.9444Z" fill="#EDC172"/>
<path fill-rule="evenodd" clip-rule="evenodd" d="M55.6966 53.3703C55.3519 53.3191 55.089 53.4498 54.9095 53.7638C61.2318 59.558 66.3476 66.2478 70.2568 73.8333C70.3678 79.7022 67.876 80.8828 62.7799 77.375C57.6988 71.8012 53.5007 65.6355 50.1873 58.8796C52.2863 55.5646 51.7622 52.5478 48.6132 49.8286C50.9075 50.9761 53.2686 52.1567 55.6966 53.3703Z" fill="#EDC172"/>
<path fill-rule="evenodd" clip-rule="evenodd" d="M49.4003 58.8796C51.2616 65.8512 51.918 72.9345 51.3679 80.1296C50.9563 84.3418 48.7266 86.9658 44.678 88C42.35 87.3074 40.9073 85.7333 40.3493 83.2778C40.0872 80.3917 39.8244 77.5064 39.5623 74.6203C38.4109 77.3364 36.7061 79.5669 34.4465 81.3102C32.2365 82.0343 30.531 81.3786 29.3308 79.3426C28.7791 76.6446 29.0412 74.0206 30.1178 71.4722C32.4018 65.9385 35.4193 60.9542 39.1688 56.5185C42.4192 58.087 44.3868 57.0371 45.0716 53.3703C45.8043 54.9121 46.4599 56.4862 47.0392 58.0925C47.6885 58.7898 48.4755 59.0519 49.4003 58.8796Z" fill="#EDC172"/>
</svg>
