<svg width="81" height="73" viewBox="0 0 81 73" fill="none" xmlns="http://www.w3.org/2000/svg">
<path fill-rule="evenodd" clip-rule="evenodd" d="M30.1363 41.5098C30.1706 43.508 29.2166 44.8199 27.2735 45.4461C24.6355 45.7724 22.2494 45.2951 20.1167 44.0147C23.9484 49.98 22.2788 52.366 15.1069 51.1716C13.6844 50.2276 12.8495 48.9157 12.602 47.2353C12.2975 49.7767 10.9854 51.4464 8.66568 52.2451C6.30191 51.0728 4.39339 49.4031 2.94019 47.2353C2.75948 45.2171 3.11732 43.309 4.01372 41.5098C5.90177 39.4937 8.04883 37.824 10.4549 36.5C9.91126 33.9607 9.43419 31.3363 9.02353 28.6275C6.88234 19.0902 10.5801 14.6766 20.1167 15.3873C22.9723 16.337 25.835 17.291 28.7049 18.25C34.6408 20.9109 40.1273 24.0127 45.1657 27.5539C39.7801 18.7589 38.8261 9.57445 42.3029 0C49.7747 7.28211 52.2796 16.1087 49.8176 26.4804C48.966 28.4085 48.8472 30.3172 49.4598 32.2059C61.3037 42.8503 71.5616 54.7786 80.2343 67.9902C78.7178 70.4178 76.5707 71.253 73.7931 70.4951C64.8879 56.575 54.1526 44.1693 41.5873 33.2794C35.2914 27.7443 28.1345 23.6892 20.1167 21.1127C18.0791 20.4371 16.2899 20.795 14.749 22.1863C14.0288 26.4353 14.6252 30.4911 16.5382 34.3529C20.4831 34.6979 24.2999 35.5331 27.9892 36.8578C29.3855 38.0988 30.1012 39.6497 30.1363 41.5098Z" fill="#7C7F66"/>
<path fill-rule="evenodd" clip-rule="evenodd" d="M30.1363 41.5098C37.2881 44.5794 41.1049 50.0658 41.5873 57.9706C39.5683 57.9985 37.6596 58.4751 35.8618 59.402C37.4391 64.7181 35.5304 66.7463 30.1363 65.4853C29.4206 65.1274 28.7049 64.7696 27.9892 64.4118C27.426 66.8079 26.8291 69.194 26.2 71.5686C25.6711 72.3373 24.9554 72.8146 24.053 73C20.8159 71.7984 17.8344 70.1287 15.1069 67.9902C14.0469 68.6916 13.0924 69.5268 12.2441 70.4951C9.38697 71.53 7.35921 70.4564 6.1608 67.2745C5.00453 64.5213 4.28885 61.6585 4.01374 58.6863C2.98007 59.8707 1.668 60.3481 0.0774619 60.1176C-0.292333 55.5079 0.661891 51.2138 2.94021 47.2353C4.39341 49.4031 6.30193 51.0728 8.6657 52.2451C10.9854 51.4464 12.2975 49.7767 12.602 47.2353C12.8495 48.9157 13.6844 50.2276 15.1069 51.1716C22.2788 52.366 23.9485 49.9799 20.1167 44.0147C22.2494 45.2951 24.6355 45.7724 27.2735 45.4461C29.2166 44.8198 30.1706 43.508 30.1363 41.5098Z" fill="#F4864A"/>
</svg>
