<svg width="74" height="75" viewBox="0 0 74 75" fill="none" xmlns="http://www.w3.org/2000/svg">
<path fill-rule="evenodd" clip-rule="evenodd" d="M29.3333 0.00880619C29.9973 -0.0485271 30.5527 0.17414 31 0.675473C33.1313 4.81081 36.02 8.36614 39.6667 11.3421C41.586 15.0928 42.4747 19.0928 42.3333 23.3421C47.086 15.7768 53.6413 13.8875 62 17.6755C66.3393 19.7321 70.3393 22.2875 74 25.3421C70.596 27.0181 68.2627 29.6848 67 33.3421C64.0673 36.9735 60.4007 39.5288 56 41.0088C65.036 44.5048 68.258 51.0608 65.6667 60.6755C65.1367 62.2761 64.3587 63.7208 63.3333 65.0088C58.8887 65.4535 54.4447 65.4535 50 65.0088C46.3807 63.8075 43.3807 61.6961 41 58.6755C41.0867 65.9475 37.8647 71.1695 31.3333 74.3421C30 74.7868 28.6667 74.7868 27.3333 74.3421C23.168 72.0788 18.724 70.8568 14 70.6755C12.412 62.2208 14.634 54.9988 20.6667 49.0088C12.778 50.5281 5.88933 48.5281 0 43.0088C1.15667 41.5475 1.93467 39.8808 2.33333 38.0088C3.66467 24.9281 10.442 21.0395 22.6667 26.3421C23.222 26.8975 23.778 27.4535 24.3333 28.0088C23.0547 24.9921 21.7213 21.8808 20.3333 18.6755C19.3947 13.7141 20.506 9.26947 23.6667 5.34214C25.486 3.40947 27.3747 1.63147 29.3333 0.00880619Z" fill="#7A7E64"/>
<path fill-rule="evenodd" clip-rule="evenodd" d="M33.3334 32.0088C35.1247 31.8994 36.9027 32.0108 38.6667 32.3421C39.5734 33.6341 39.3514 34.7448 38 35.6754C39.6347 35.8688 41.19 36.3128 42.6667 37.0088C43.0394 37.4921 43.2614 38.0474 43.3334 38.6754C42.76 39.8568 41.8714 40.7454 40.6667 41.3421C41.772 44.6774 40.6614 45.7888 37.3334 44.6754C36.388 46.2908 35.0547 47.4014 33.3334 48.0088C32.7054 47.9368 32.15 47.7148 31.6667 47.3421C31.4447 46.4534 31.222 45.5641 31 44.6754C29.224 47.2028 27.5574 47.0914 26 44.3421C26.1727 43.5014 26.6174 42.8348 27.3334 42.3421C24.0367 42.2234 23.2587 40.7788 25 38.0088C25.7114 37.5481 26.4894 37.2148 27.3334 37.0088C26.4447 35.8974 26.4447 34.7868 27.3334 33.6754C29.0234 33.2641 30.5787 33.5974 32 34.6754C32.5747 33.8314 33.0194 32.9428 33.3334 32.0088Z" fill="#E9BD6E"/>
</svg>
