<svg width="63" height="70" viewBox="0 0 63 70" fill="none" xmlns="http://www.w3.org/2000/svg">
<path fill-rule="evenodd" clip-rule="evenodd" d="M32.9152 0.000520475C34.196 -0.0167046 35.3243 0.393621 36.2987 1.23088C37.4743 4.5707 39.2171 7.54387 41.5277 10.151C47.893 11.2799 49.431 14.6634 46.1416 20.3015C44.0703 22.5795 41.8144 24.6299 39.3746 26.4533C38.9643 27.0685 38.9643 27.6837 39.3746 28.2989C42.8541 25.4118 46.8527 24.489 51.3706 25.5305C54.4465 26.5561 57.5225 27.5809 60.5984 28.6064C63.1594 29.7236 63.6724 31.4664 62.1363 33.8355C59.6547 35.387 57.3988 37.2325 55.3693 39.3721C55.9384 42.181 56.1438 45.0521 55.9845 47.9847C53.1553 52.0215 49.5669 52.7394 45.2188 50.1378C43.0657 48.8047 41.3229 47.0619 39.9898 44.9088C41.6951 49.3928 43.5406 53.9045 45.5264 58.4427C46.5901 62.5675 45.4618 65.951 42.1429 68.5932C40.7926 69.4379 39.3568 69.6427 37.8367 69.2084C37.1784 66.7711 36.1529 64.5152 34.7607 62.4414C33.0069 61.6485 31.1613 61.3409 29.2241 61.5186C29.1281 63.0972 29.3336 64.6352 29.8393 66.1325C26.9504 68.1251 24.3869 67.6126 22.1495 64.5946C21.1345 62.7798 20.622 60.8315 20.6116 58.7503C20.8939 56.4754 21.4064 54.3223 22.1495 52.2909C17.2724 57.4252 11.7357 58.4501 5.53963 55.3668C4.6993 54.2164 3.98138 52.9861 3.3865 51.6757C4.89492 50.6601 6.22741 49.4297 7.38518 47.9847C8.49927 45.2237 9.11445 42.3533 9.23072 39.3721C10.4777 37.9744 11.8108 36.6413 13.2294 35.3734C7.99605 35.2553 4.20223 32.8973 1.84855 28.2989C0.566509 25.1147 -0.048672 21.8339 0.00300327 18.456C1.5631 20.4651 3.6135 21.2858 6.15482 20.9167C9.24303 20.7081 12.2162 19.9908 15.0749 18.7635C19.7952 18.5107 23.3836 20.459 25.8406 24.6078C25.8314 22.7192 25.4211 20.8736 24.6103 19.0711C23.1646 10.7754 25.9329 4.41814 32.9152 0.000520475Z" fill="#7A7E64"/>
</svg>
