<svg width="73" height="66" viewBox="0 0 73 66" fill="none" xmlns="http://www.w3.org/2000/svg">
<path fill-rule="evenodd" clip-rule="evenodd" d="M47.3843 51.9544C47.8937 52.3481 48.4932 52.5731 49.1823 52.6288C48.5488 50.9279 47.6916 49.349 46.6114 47.8906C45.1215 44.8891 45.8344 42.9143 48.7515 41.966C52.1629 45.9322 54.3115 50.4844 55.1968 55.6231C57.9199 57.4503 60.8775 58.7512 64.0702 59.5256C62.1479 55.0694 60.4606 50.526 59.0095 45.8956C55.0123 43.2853 51.197 40.4048 47.5651 37.2549C45.4436 35.3122 44.3891 32.9478 44.4009 30.1611C45.4858 30.0059 46.4386 30.3088 47.2598 31.0693C50.746 34.2594 54.0901 37.5923 57.2926 41.0675C56.6999 37.7181 55.9477 34.4003 55.0367 31.1148C50.9113 28.3339 47.8223 24.6869 45.7682 20.1727C46.1274 18.7446 46.9129 18.5473 48.1237 19.5795C50.2692 22.463 52.4149 25.3454 54.5604 28.2288C53.9997 24.5372 53.3254 20.8662 52.5382 17.2153C50.0027 15.4406 48.094 13.166 46.8117 10.3911C46.6622 9.14392 47.1412 8.22997 48.2504 7.64904C49.2554 9.45629 50.4663 11.1137 51.8823 12.6211C50.9955 9.20519 51.1665 5.90567 52.3954 2.72251C55.7763 -0.460772 56.9752 -0.0107311 55.9915 4.07134C54.0457 6.41903 52.9972 9.06405 52.8533 12.0008C53.0991 12.1473 53.3447 12.2949 53.5905 12.4414C54.8919 9.27476 57.1596 7.8262 60.3876 8.09941C58.6527 11.562 56.3209 14.5711 53.3924 17.1254C54.0245 18.9184 54.6656 20.6354 55.316 22.2771C55.5846 19.2617 57.0829 17.0895 59.8117 15.7593C60.483 16.582 60.9246 17.5158 61.1421 18.5555C59.8548 22.9399 58.3496 27.243 56.628 31.4656C57.0041 33.6454 57.6747 35.647 58.6414 37.4714C57.8715 32.4905 59.7508 29.0113 64.2792 27.0338C66.3927 27.2059 67.4346 28.3633 67.4077 30.5043C65.1405 34.5877 62.6139 38.4805 59.8279 42.1825C61.693 49.0205 64.5511 55.3983 68.4035 61.315C70.9783 61.7184 72.4048 63.2381 72.6827 65.8735C67.0407 64.3741 61.539 62.4195 56.1765 60.0105C48.8106 63.0769 41.1444 64.6315 33.1783 64.675C31.2116 63.6253 29.8932 62.0365 29.2228 59.9098C31.7155 56.87 34.973 55.5484 38.9958 55.9456C42.7168 56.4326 46.1238 56.535 49.2181 56.252C44.7195 53.3905 40.266 50.4628 35.8587 47.4673C29.4677 48.7451 23.0276 49.3653 16.5379 49.327C12.0738 49.1279 8.81012 47.1109 6.74761 43.2757C7.00613 42.1836 7.69253 41.5929 8.80657 41.5047C16.276 41.6654 23.6813 42.5562 31.022 44.1764C27.871 40.7576 24.527 37.4248 20.9893 34.1783C16.2916 33.7491 11.6164 33.0896 6.96415 32.1994C3.63081 31.1749 1.5059 29.0385 0.590293 25.7887C0.961823 24.9434 1.60917 24.5299 2.53234 24.5481C7.50604 25.9859 12.2623 27.9609 16.7999 30.4739C13.5126 25.4704 9.58671 20.9898 5.02323 17.0322C3.28144 14.7222 3.1496 12.3754 4.62813 9.99258C5.18785 9.7672 5.75733 9.70695 6.33635 9.81288C9.61163 13.6873 11.6912 18.1315 12.5749 23.1463C14.4924 24.9594 16.4109 26.7728 18.3284 28.586C17.2459 26.0152 17.3303 23.5303 18.5807 21.1328C19.1407 21.5344 19.7018 21.9361 20.2618 22.3377C21.5869 25.9403 22.4377 29.6508 22.8144 33.4681C25.744 36.0239 28.7136 38.5322 31.7235 40.9938C30.1953 38.4517 29.2186 35.734 28.7931 32.8392C29.0675 31.3423 29.8701 30.2216 31.2028 29.4769C34.0902 34.3038 35.9057 39.5245 36.65 45.1388C40.1544 47.5626 43.7329 49.8342 47.3843 51.9544Z" fill="#F58A4F"/>
</svg>
