<svg width="77" height="57" viewBox="0 0 77 57" fill="none" xmlns="http://www.w3.org/2000/svg">
<path fill-rule="evenodd" clip-rule="evenodd" d="M44.4325 0.15933C49.0814 -0.528026 52.7025 1.00865 55.2959 4.76804C55.7515 8.31741 55.5323 11.8292 54.6375 15.3022C52.9883 20.4726 51.233 25.5197 49.3704 30.4451C53.86 25.3018 59.0171 21.0223 64.8425 17.6066C68.7823 15.7157 71.7451 16.7033 73.7308 20.5693C75.3971 24.7047 74.7388 28.4351 71.7556 31.7619C67.3332 35.8946 62.3953 39.2965 56.9419 41.9669C61.9147 41.0669 66.9625 40.8477 72.0848 41.3085C75.515 42.1058 76.7225 44.1903 75.7059 47.5632C73.6748 51.6031 70.4922 54.3459 66.1593 55.793C60.2068 56.2967 54.2813 56.0768 48.3829 55.1347C36.3614 52.8975 24.5104 50.044 12.8299 46.5756C1.95668 39.0127 -1.44455 29.027 2.62494 16.619C3.40316 15.3964 4.50069 14.738 5.91688 14.6438C8.20214 15.1719 10.1773 16.2687 11.8424 17.9358C15.4595 22.5359 18.7515 27.3639 21.7182 32.4203C21.0637 28.0361 20.1854 23.6473 19.0846 19.2526C18.6455 15.5215 18.6455 11.7911 19.0846 8.05998C22.1573 1.91525 25.2294 1.91525 28.302 8.05998C30.2081 14.2969 31.5248 20.6609 32.2524 27.1532C32.6145 19.1136 34.8095 11.6521 38.8362 4.76804C40.5665 2.98381 42.4317 1.44714 44.4325 0.15933Z" fill="#CF8D61"/>
</svg>
