<svg width="93" height="103" viewBox="0 0 93 103" fill="none" xmlns="http://www.w3.org/2000/svg">
<path fill-rule="evenodd" clip-rule="evenodd" d="M79.0126 21.9497C82.361 24.1893 83.8317 27.2851 83.4181 31.2337C78.977 34.6782 74.094 37.3232 68.7691 39.1686C71.5595 39.8427 74.4696 40.2812 77.5127 40.4916C79.8954 41.3612 82.1648 42.4545 84.3276 43.775C82.8105 45.6273 80.7989 46.6821 78.2992 46.943C76.0459 46.8623 73.7991 46.7853 71.5458 46.7046C68.7237 45.3782 66.0098 44.0427 63.4041 42.6981C58.8817 45.1552 54.8351 48.1126 51.2579 51.5666C58.4248 49.7357 65.1483 50.8183 71.4285 54.8145C68.7319 58.4052 65.1149 60.306 60.5774 60.517C55.3487 59.2964 50.2833 57.5394 45.3805 55.2471C41.9796 57.6039 38.958 60.2593 36.309 63.21C45.6091 60.3853 54.1195 61.8678 61.8465 67.6616C51.1879 74.3844 39.9956 75.4552 28.2625 70.8709C24.7759 74.506 21.1593 77.985 17.4133 81.3066C13.898 81.647 11.3571 80.2624 9.78404 77.1492C14.3615 71.3544 19.4544 65.9558 25.0627 60.9534C23.6122 55.4048 22.517 49.7884 21.7698 44.1017C21.3317 38.2583 22.6483 32.9529 25.7128 28.1818C28.6284 31.4523 30.4087 35.2906 31.0537 39.6963C31.2568 45.7972 30.8147 51.8665 29.7345 57.9065C33.7507 54.326 37.8194 50.8068 41.9404 47.3496C33.6218 37.131 33.2032 26.5783 40.6915 15.6943C45.1457 25.1414 46.3779 34.9905 44.3815 45.2383C49.4498 41.1637 54.7623 37.4622 60.3256 34.1372C58.5575 27.2924 59.9038 21.1428 64.358 15.6848C66.5974 18.57 67.2764 21.808 66.3819 25.3917C65.6213 27.8453 64.8541 30.2953 64.0935 32.7489C69.2423 29.3003 74.2154 25.7005 79.0126 21.9497Z" fill="#7C8066"/>
</svg>
