<svg width="60" height="64" viewBox="0 0 60 64" fill="none" xmlns="http://www.w3.org/2000/svg">
<path fill-rule="evenodd" clip-rule="evenodd" d="M32.2032 11.9909C31.4838 16.0841 31.4838 20.2629 32.2032 24.5267C32.6392 24.2776 32.8191 23.9141 32.7483 23.4366C33.5931 17.1131 36.1384 11.5718 40.3787 6.81307C45.9272 3.14935 50.7453 3.9669 54.8222 9.26573C55.667 10.5019 56.1248 11.8645 56.1848 13.3535C55.7596 15.0731 55.6724 16.7992 55.9122 18.5313C57.3893 21.008 58.7519 23.5516 60 26.1618C60 27.2519 59.455 27.7969 58.3649 27.7969C52.702 24.8674 47.0663 24.9578 41.4688 28.0694C47.2135 29.0794 52.3913 31.3505 57.0023 34.8824C57.3893 36.2292 57.204 37.5013 56.4573 38.6976C54.9366 40.5442 53.1217 41.9973 51.0069 43.0579C49.2356 48.245 47.5078 53.4228 45.8291 58.5914C43.7743 59.2362 42.0465 58.7816 40.6513 57.2288C39.256 51.8967 36.9832 46.9914 33.8383 42.5129C33.6857 42.0828 33.4132 41.7193 33.0208 41.4228C32.7483 43.2307 32.6556 45.0473 32.7483 46.8731C32.999 52.9595 30.9987 58.1374 26.7529 62.4066C25.1668 63.125 23.5317 63.307 21.8476 62.9517C20.0653 62.0753 18.4302 60.9852 16.9422 59.6815C15.3071 57.6828 13.672 55.6847 12.0369 53.6861C5.89984 52.6669 4.98963 49.7602 9.31175 44.9655C13.018 41.9918 17.0131 39.4481 21.3025 37.335C16.6098 38.2229 12.2495 40.04 8.22168 42.7854C2.32986 44.9203 -0.395317 42.8312 0.0461615 36.5175C0.138817 35.6089 0.226023 34.7009 0.318679 33.7923C3.54529 29.656 5.00053 24.9328 4.67896 19.6214C4.84792 16.9011 6.21051 15.9015 8.76672 16.6237C12.3149 21.0799 16.6752 24.5316 21.8476 26.9794C22.9104 27.5195 24.0004 27.7015 25.1178 27.5244C17.4873 22.6142 12.0369 15.8923 8.76672 7.35811C8.08543 5.69739 8.08543 4.06228 8.76672 2.45279C9.60062 1.94973 10.5108 1.67721 11.4919 1.63524C13.3178 2.37213 15.2254 2.73567 17.2148 2.72531C21.5696 2.28765 25.8372 1.4701 30.0231 0.272654C31.4783 -0.0908846 32.9281 -0.0908846 34.3834 0.272654C35.0919 0.710862 35.4571 1.34692 35.4734 2.18028C33.2279 5.05533 32.1378 8.32554 32.2032 11.9909Z" fill="#78311A"/>
</svg>
