<svg width="79" height="50" viewBox="0 0 79 50" fill="none" xmlns="http://www.w3.org/2000/svg">
<path fill-rule="evenodd" clip-rule="evenodd" d="M0.908093 15.8825C4.03912 15.8146 7.26019 15.5763 10.5705 15.1689C17.2044 10.2499 24.5932 8.09826 32.7371 8.71394C35.9752 9.38849 38.8755 10.7653 41.4385 12.8428C46.6907 18.9791 52.5187 24.4989 58.9231 29.4013C59.7051 29.6819 60.5036 29.7619 61.3193 29.6403C55.1935 24.8971 50.5182 19.0268 47.294 12.0291C42.7567 5.12921 36.4258 1.79543 28.3005 2.02875C36.7312 -1.52304 44.1663 0.119578 50.6061 6.95515C55.4345 14.7247 61.5949 21.2402 69.0884 26.5016C80.6499 29.8386 82.0035 35.7195 73.1488 44.144C65.7865 48.6689 57.8529 50.0827 49.3466 48.386C44.0528 46.7942 40.1031 43.5432 37.4966 38.6321C34.3919 34.3987 30.2935 32.9025 25.2009 34.1449C20.4685 36.2098 15.6095 36.6875 10.6236 35.5797C8.85833 34.781 7.62586 33.478 6.92709 31.6704C11.6824 30.6843 16.2803 29.1241 20.7194 26.9893C25.1611 25.4938 29.5953 25.5322 34.021 27.1044C41.0066 34.2524 49.4354 38.0121 59.3074 38.3845C55.2394 36.5311 51.3082 34.3067 47.5147 31.7112C44.9832 29.5954 43.0746 27.0138 41.7901 23.9658C37.587 18.3914 32.0585 16.0075 25.2051 16.8146C18.9273 17.987 12.616 19.0037 6.27288 19.865C3.82291 19.4257 2.03416 18.0981 0.908093 15.8825Z" fill="#D9AF96"/>
</svg>
