<svg width="56" height="56" viewBox="0 0 56 56" fill="none" xmlns="http://www.w3.org/2000/svg">
<path fill-rule="evenodd" clip-rule="evenodd" d="M41.0921 16.0201C40.4506 16.6637 40.4506 17.296 41.0921 17.9163C43.8643 18.393 46.3922 19.3867 48.6769 20.896C49.1569 20.4491 49.3373 19.9073 49.2187 19.2707C48.7728 18.2116 48.6823 17.128 48.9478 16.0201C52.4791 12.7472 54.7367 8.77384 55.72 4.10103C55.9264 2.57052 55.3846 1.39703 54.0947 0.579495C49.4235 -0.560399 44.9083 -0.0186241 40.5503 2.20482C26.4533 9.61034 13.0899 18.0978 0.45896 27.6682C-0.498897 30.0352 0.0428773 32.0214 2.08428 33.6278C2.62606 33.9891 3.16783 33.9891 3.70961 33.6278C16.042 21.9503 29.9472 12.5592 45.4263 5.45547C47.3301 4.60922 49.3167 4.15792 51.3858 4.10103C51.2476 5.46414 50.7958 6.72864 50.0313 7.89345C48.3177 9.87418 46.8733 12.0413 45.6972 14.3948C44.2912 15.2491 42.7559 15.7909 41.0921 16.0201Z" fill="#7C8066"/>
<path fill-rule="evenodd" clip-rule="evenodd" d="M41.092 16.0201C27.3385 18.8281 19.6632 27.1357 18.0666 40.9417C21.3335 34.6019 26.1195 29.9968 32.4236 27.1265C26.4495 34.033 23.8311 42.0692 24.5679 51.2354C25.3659 48.9172 26.4495 46.7501 27.8185 44.7341C32.3332 40.9417 36.4869 36.7879 40.2794 32.2733C37.2936 39.7233 36.3006 47.4885 37.2996 55.5696C37.661 55.5696 38.0218 55.5696 38.3832 55.5696C38.9211 52.9621 39.7338 50.4336 40.8211 47.9848C43.8394 41.4044 47.2704 35.0835 51.1149 29.0227C51.8544 25.4356 51.2221 22.1849 49.2186 19.2707C49.3373 19.9073 49.1569 20.4491 48.6769 20.8961C46.3922 19.3867 43.8643 18.3931 41.092 17.9163C40.4506 17.296 40.4506 16.6637 41.092 16.0201Z" fill="#F2A75C"/>
</svg>
