<svg width="73" height="78" viewBox="0 0 73 78" fill="none" xmlns="http://www.w3.org/2000/svg">
<path fill-rule="evenodd" clip-rule="evenodd" d="M26.1209 74.7597C14.5442 76.5767 7.05399 71.9156 3.65038 60.7761C1.93855 52.813 2.91465 45.2131 6.5787 37.9764C11.7921 30.8705 18.1312 29.7168 25.5959 34.5149C33.4146 40.3449 39.781 47.4465 44.6944 55.8207C45.8128 59.9572 44.7584 63.4376 41.5321 66.2619C36.8781 70.0341 31.7411 72.8667 26.1209 74.7597Z" fill="#F58549"/>
<path fill-rule="evenodd" clip-rule="evenodd" d="M25.87 63.78C17.7862 65.1567 13.3503 61.8018 12.5627 53.7152C12.621 50.8302 13.3164 48.1178 14.6486 45.5773C17.4264 41.3936 20.425 41.2648 23.6443 45.1916C26.7335 49.4615 29.7229 53.7915 32.6131 58.1817C32.5797 59.2534 32.173 60.1583 31.3938 60.897C29.6537 62.1518 27.8124 63.1127 25.87 63.78Z" fill="#EDBF6E"/>
<path fill-rule="evenodd" clip-rule="evenodd" d="M59.1123 46.9743C51.4831 48.1717 46.5469 45.1 44.3039 37.7589C43.1758 32.5111 43.8191 27.5027 46.2337 22.7336C49.6694 18.0507 53.847 17.2904 58.7663 20.4524C63.919 24.2945 68.1145 28.9745 71.3525 34.4932C72.0895 37.2192 71.3947 39.5129 69.2685 41.3741C66.2014 43.86 62.8161 45.7267 59.1123 46.9743Z" fill="#F58549"/>
<path fill-rule="evenodd" clip-rule="evenodd" d="M58.9469 39.7385C53.6196 40.6458 50.6963 38.4348 50.1773 33.1056C50.2156 31.2044 50.674 29.4169 51.5519 27.7427C53.3825 24.9856 55.3586 24.9007 57.4801 27.4885C59.516 30.3024 61.486 33.1559 63.3907 36.0491C63.3687 36.7554 63.1007 37.3518 62.5872 37.8386C61.4405 38.6655 60.227 39.2987 58.9469 39.7385Z" fill="#EDBF6E"/>
<path fill-rule="evenodd" clip-rule="evenodd" d="M28.2992 26.8753C21.5908 27.9282 17.2505 25.2273 15.2782 18.7722C14.2862 14.1579 14.8519 9.75392 16.9751 5.56044C19.9961 1.44276 23.6694 0.774219 27.995 3.55459C32.5257 6.93292 36.2149 11.0481 39.062 15.9007C39.7101 18.2977 39.0991 20.3145 37.2296 21.9511C34.5327 24.137 31.556 25.7784 28.2992 26.8753Z" fill="#F58549"/>
<path fill-rule="evenodd" clip-rule="evenodd" d="M28.1538 20.5129C23.4695 21.3107 20.899 19.3666 20.4426 14.6806C20.4764 13.0088 20.8794 11.4371 21.6514 9.96496C23.261 7.54063 24.9986 7.46597 26.8641 9.74147C28.6542 12.2157 30.3865 14.7248 32.0613 17.2688C32.0419 17.8899 31.8062 18.4142 31.3547 18.8423C30.3464 19.5694 29.2794 20.1262 28.1538 20.5129Z" fill="#EDBF6E"/>
</svg>
