<svg width="110" height="105" viewBox="0 0 110 105" fill="none" xmlns="http://www.w3.org/2000/svg">
<path fill-rule="evenodd" clip-rule="evenodd" d="M35.9192 57.9633C35.0292 53.9953 34.1892 49.9953 33.4192 45.9633C33.6392 54.9412 33.7992 63.9412 33.9192 72.9633C34.1592 76.2573 33.3292 79.2573 31.4192 81.9632C30.2892 83.6742 28.7892 84.1742 26.9192 83.4632C23.2992 77.8892 21.6292 71.7222 21.9192 64.9632C22.0892 56.9562 21.9192 48.9562 21.4192 40.9632C20.2892 42.8082 19.7892 44.8082 19.9192 46.9632C17.9792 64.1852 14.8092 81.1852 10.4192 97.9632C9.45917 100.919 7.78917 103.253 5.41917 104.963C4.19917 104.191 3.19917 103.191 2.41917 101.963C-0.430831 73.3242 -0.760828 44.6572 1.41917 15.9632C1.88917 10.8842 4.05918 6.71725 7.91918 3.46325C36.1592 -0.34675 64.4892 -1.01275 92.9192 1.46326C97.9892 2.14126 102.989 3.14126 107.919 4.46326C110.409 7.09026 110.569 9.92326 108.419 12.9633C101.129 17.6253 93.1292 19.6253 84.4192 18.9633C78.5692 18.5143 72.7392 18.3483 66.9192 18.4633C77.2392 21.4583 86.9092 25.7923 95.9192 31.4633C97.3492 33.7303 97.0192 35.7303 94.9192 37.4633C89.9392 39.3843 84.9392 39.3843 79.9192 37.4633C70.1892 34.3413 60.8592 30.6743 51.9192 26.4633C59.8692 33.4093 66.7092 41.2423 72.4192 49.9633C74.4792 53.4073 75.9792 57.0743 76.9192 60.9633C74.5292 67.3963 70.5292 68.5633 64.9192 64.4633C57.9392 57.8213 52.1092 50.3213 47.4192 41.9633C49.5892 49.4813 51.5892 57.1473 53.4192 64.9633C54.2692 69.0883 53.9392 73.0883 52.4192 76.9633C48.5392 79.6833 45.2092 79.0173 42.4192 74.9633C39.5592 69.5463 37.3892 63.8793 35.9192 57.9633Z" fill="#F5864A"/>
</svg>
