<svg width="51" height="82" viewBox="0 0 51 82" fill="none" xmlns="http://www.w3.org/2000/svg">
<path fill-rule="evenodd" clip-rule="evenodd" d="M42.1484 81.6065C41.2448 81.5345 40.4072 81.2588 39.6366 80.7804C38.2938 79.0335 37.2141 77.1511 36.3983 75.1332C33.4132 61.7843 28.7742 49.068 22.4824 36.983C24.1259 44.0402 25.6122 51.2378 26.9419 58.5764C26.9089 61.021 26.4467 63.3807 25.555 65.657C23.717 67.0796 22.2146 66.7854 21.0492 64.7745C18.4703 53.4194 17.8245 41.9304 19.1113 30.3072C16.6914 25.5997 13.8445 21.3659 10.5707 17.606C13.3278 25.1781 15.0309 32.9749 15.6805 40.9978C15.7316 43.013 15.3534 44.944 14.5458 46.791C12.288 48.1969 10.6133 47.6463 9.52235 45.1387C7.59442 34.903 7.38218 24.6131 8.88511 14.2681C6.23307 10.5992 3.34592 7.1376 0.225095 3.88285C0.193139 2.31591 0.874641 1.11262 2.26895 0.272866C9.05039 6.75307 14.6114 14.192 18.9519 22.5896C27.3097 23.9292 34.9549 26.986 41.8859 31.7604C44.4537 34.2183 44.7216 36.8327 42.689 39.6041C41.5508 40.3884 40.2862 40.5865 38.8965 40.198C32.1661 37.0437 26.4671 32.5855 21.7988 26.8233C23.2983 31.4522 25.182 36.0547 27.4494 40.6294C36.6211 44.925 44.2141 51.0909 50.2275 59.1271C50.0283 62.9868 48.1039 64.2808 44.4543 63.0092C38.5768 59.2539 34.0978 54.2554 31.0163 48.0119C30.8668 48.2052 30.7179 48.3993 30.5684 48.5926C32.0373 52.5825 33.3614 56.6296 34.5401 60.7331C37.9414 65.2345 40.7908 70.0255 43.0873 75.1066C43.7893 77.4431 43.476 79.6094 42.1484 81.6065Z" fill="#5D562A"/>
</svg>
