<svg width="70" height="64" viewBox="0 0 70 64" fill="none" xmlns="http://www.w3.org/2000/svg">
<path fill-rule="evenodd" clip-rule="evenodd" d="M1.00102 61.221C0.842895 60.3284 0.898456 59.4483 1.16713 58.5821C2.51891 56.8421 4.06827 55.3227 5.81525 54.0243C17.98 47.7696 29.1157 40.074 39.2236 30.9381C32.8088 34.3081 26.2186 37.5613 19.4524 40.6986C17.0786 41.2831 14.6785 41.4308 12.2509 41.142C10.4108 39.7221 10.3167 38.1941 11.9687 36.5592C22.3065 31.2003 33.2615 27.6783 44.8335 25.9926C48.7788 22.4639 52.1578 18.6414 54.9707 14.5252C48.3385 19.1026 41.2231 22.7168 33.6233 25.3685C31.6862 25.9261 29.7221 26.047 27.7312 25.7312C25.8014 23.9009 25.9119 22.1414 28.0634 20.4535C37.4821 16.0068 47.386 13.2067 57.7757 12.0525C60.6573 8.56095 63.279 4.89422 65.6416 1.05352C67.1499 0.627477 68.4861 0.983533 69.6504 2.12104C65.0896 10.3174 59.2933 17.5745 52.2616 23.8923C53.0728 32.3178 52.0426 40.4867 49.1703 48.3977C47.4392 51.5023 44.9768 52.4208 41.7825 51.1527C40.7365 50.2491 40.2259 49.0753 40.2514 47.6325C41.6067 40.3242 44.4837 33.6852 48.8826 27.7148C44.7814 30.3331 40.8026 33.3165 36.9474 36.6642C35.1034 46.6227 31.0514 55.525 24.7913 63.3706C21.0061 64.1511 19.2686 62.6151 19.5789 58.7628C21.7307 52.1283 25.4383 46.5337 30.7029 41.9774C30.4782 41.8815 30.2528 41.7863 30.0281 41.6903C26.5375 44.1179 22.9551 46.4197 19.2814 48.5951C15.7831 53.0216 11.8655 56.9869 7.5277 60.4905C5.44372 61.759 3.26836 62.0021 1.00102 61.221Z" fill="#5D562A"/>
</svg>
