<svg width="114" height="126" viewBox="0 0 114 126" fill="none" xmlns="http://www.w3.org/2000/svg">
<path fill-rule="evenodd" clip-rule="evenodd" d="M7.05275 112.771C6.35812 113.486 5.41849 113.978 4.42839 113.857C2.29317 113.597 1.01799 112.365 0.602884 110.16C0.487296 109.546 0.602551 108.914 0.858278 108.344C3.70214 102.005 8.26908 97.4441 14.5575 94.6599C15.0511 94.4414 15.5915 94.3352 16.1302 94.3681C20.7238 94.648 21.7843 96.8134 19.3115 100.863C19.1262 101.167 18.8901 101.437 18.6248 101.674C14.6137 105.255 10.7565 108.954 7.05275 112.771Z" fill="#FFE1B0"/>
<path fill-rule="evenodd" clip-rule="evenodd" d="M38.0997 98.2266C37.3207 98.9692 36.2563 99.3847 35.1994 99.1819C31.4728 98.4667 30.4803 96.0007 32.2211 91.7851C34.558 86.7823 37.9958 82.8233 42.5362 79.9084C42.9864 79.6194 43.4986 79.4323 44.0314 79.3838C48.2925 78.9958 50.0188 80.8506 49.2116 84.9469C49.1136 85.4442 48.8897 85.9086 48.5888 86.3165C45.4196 90.6113 41.9232 94.5813 38.0997 98.2266Z" fill="#FFE1B0"/>
<path fill-rule="evenodd" clip-rule="evenodd" d="M64.7272 94.6097C63.9432 95.1517 62.9722 95.4335 62.0624 95.1492C59.8872 94.4695 58.8955 92.8412 59.0878 90.2634C59.106 90.0192 59.1579 89.7776 59.2325 89.5444C61.1014 83.7039 64.6483 79.2587 69.8716 76.2094C70.5068 75.8385 71.2489 75.6782 71.9806 75.7542C79.2725 76.5122 80.3947 80.0684 75.3455 86.4226C75.1844 86.6255 74.998 86.8135 74.7983 86.9786C71.4991 89.7057 68.1421 92.2492 64.7272 94.6097Z" fill="#FFE1B0"/>
<path fill-rule="evenodd" clip-rule="evenodd" d="M20.725 88.867C20.1987 89.1818 19.6028 89.3793 18.9899 89.3579C16.4562 89.2698 14.9709 87.9967 14.534 85.5383C14.4332 84.9712 14.5247 84.3883 14.751 83.8586C15.6805 81.6827 17.0024 79.7716 18.7161 78.1244C22.2888 74.1293 26.4155 70.836 31.0974 68.2438C31.3469 68.1057 31.6163 67.9952 31.8912 67.919C39.2194 65.8895 41.0518 68.206 37.3878 74.8673C37.2496 75.1187 37.0785 75.3566 36.8858 75.5691C32.0884 80.859 26.702 85.2914 20.725 88.867Z" fill="#FFE1B0"/>
<path fill-rule="evenodd" clip-rule="evenodd" d="M55.2254 72.0184C54.4621 72.7718 53.419 73.2084 52.3585 73.0485C52.2353 73.0299 52.1125 73.0096 51.9901 72.9875C50.2374 72.671 49.2485 70.8903 49.645 69.1539C51.2552 62.1026 55.2524 56.4397 61.6361 52.1643C62.2589 51.7472 63.0018 51.5313 63.7506 51.5656C70.2804 51.8644 71.0578 54.8442 66.0825 60.5056C62.5846 64.4893 58.9656 68.3264 55.2254 72.0184Z" fill="#FFE1B0"/>
<path fill-rule="evenodd" clip-rule="evenodd" d="M18.5053 64.4901C18.0122 64.7757 17.4383 64.8865 16.8723 64.8203V64.8203C15.2314 64.6285 14.1287 63.0276 14.6814 61.4707C16.4451 56.5031 19.2823 52.1605 23.1931 48.4435C25.3138 46.2362 27.7875 44.6758 30.6138 43.7623C31.4007 43.5079 32.2739 43.5352 32.9754 43.9732C34.5987 44.9868 35.0526 46.483 34.337 48.4614C34.2725 48.6397 34.1869 48.8104 34.0906 48.9736C30.2097 55.5477 25.0149 60.7199 18.5053 64.4901Z" fill="#FFE1B0"/>
<path fill-rule="evenodd" clip-rule="evenodd" d="M40.9979 60.3122C40.6083 60.4585 40.1924 60.5328 39.7764 60.5222C35.6471 60.4173 34.1875 58.4524 35.397 54.6273C35.5445 54.1606 35.8071 53.7382 36.1339 53.3737C42.2108 46.5942 48.7626 40.2771 55.7886 34.4224C56.3371 33.9653 56.9999 33.6493 57.7122 33.6011C61.0287 33.3764 62.0198 34.9903 60.6853 38.4429C60.6145 38.6262 60.525 38.8037 60.4241 38.9723C56.9203 44.8281 52.9635 50.316 48.5527 55.4357C46.3063 57.639 43.788 59.2644 40.9979 60.3122Z" fill="#FFE1B0"/>
<path fill-rule="evenodd" clip-rule="evenodd" d="M90.4525 60.7806C89.9308 61.0925 89.3392 61.2881 88.7319 61.2633C86.6191 61.1771 85.1992 60.2126 84.4722 58.3688C84.1516 57.5557 84.3086 56.6486 84.7078 55.8711C89.2321 47.0605 95.2417 39.5534 102.738 33.35C103.611 32.6276 104.77 32.3126 105.862 32.6157C111.237 34.1076 112.072 37.6689 108.367 43.2996C103.741 50.5777 97.7699 56.405 90.4525 60.7806Z" fill="#FFE1B0"/>
<path fill-rule="evenodd" clip-rule="evenodd" d="M83.3004 43.8794C82.8249 44.1687 82.2862 44.3487 81.7312 44.3905C75.2557 44.8777 73.2966 42.0671 75.8537 35.9595C75.9829 35.6511 76.159 35.3614 76.3669 35.0996C81.775 28.2871 87.6662 21.92 94.0404 15.9983C94.6957 15.3895 95.5436 14.993 96.4367 15.0402C99.8163 15.2189 101.13 17.2793 100.376 21.2222C97.5365 31.1292 91.8445 38.6813 83.3004 43.8794Z" fill="#FFE1B0"/>
<path fill-rule="evenodd" clip-rule="evenodd" d="M63.5099 25.1562C62.9048 25.6205 62.1738 25.9356 61.4145 25.864C60.081 25.7382 59.0958 25.1539 58.4592 24.111C57.9785 23.3236 58.1006 22.3358 58.5006 21.5045C61.1726 15.952 65.0151 11.3635 70.0294 7.74007C70.5351 7.37464 71.1289 7.14032 71.7507 7.08827C76.6538 6.67779 78.3481 8.81013 76.8326 13.4866C76.6357 14.0941 76.258 14.6263 75.7791 15.0488C71.7738 18.5832 67.6845 21.9528 63.5099 25.1562Z" fill="#FFE1B0"/>
</svg>
