<svg width="162" height="165" viewBox="0 0 162 165" fill="none" xmlns="http://www.w3.org/2000/svg">
<path fill-rule="evenodd" clip-rule="evenodd" d="M30.0006 112.568C39.2681 115.008 47.8639 113.567 55.7894 108.246C59.128 100.666 62.1255 92.907 64.7814 84.9667C66.3613 85.083 67.7155 84.5193 68.8451 83.2759C70.8997 80.5575 72.6332 77.6484 74.0445 74.5478C74.9972 73.8276 76.098 73.3424 77.3477 73.0953C85.1815 75.0889 92.8352 74.6393 100.31 71.7469C109.361 66.6201 112.691 59.0348 110.301 48.9901C114.313 47.859 118.044 45.9942 121.493 43.3954C133.667 41.3182 144.794 43.9563 154.874 51.3101C156.083 52.8417 157.147 54.457 158.063 56.1571C157.715 63.8225 153.852 68.373 146.473 69.8107C140.587 68.1553 134.643 66.9552 128.641 66.2107C122.304 78.1617 116.037 90.1472 109.841 102.167C102.589 107.503 94.6209 111.392 85.9359 113.833C79.1598 119.347 72.1752 124.598 64.9812 129.586C45.9864 139.449 34.3264 133.776 30.0006 112.568Z" fill="#7A7E64"/>
<path fill-rule="evenodd" clip-rule="evenodd" d="M80.1916 59.2291C86.6125 59.9625 93.0702 60.5841 99.5668 61.0925C103.533 59.0087 105.694 55.6869 106.049 51.1274C107.604 47.2526 109.458 46.95 111.611 50.2199C114.001 60.2646 110.671 67.8499 101.62 72.9767C94.1453 75.8691 86.4916 76.3187 78.6578 74.3251C77.4081 74.5722 76.3073 75.0574 75.3546 75.7777C71.0544 78.0036 67.9667 81.4766 66.0915 86.1965C63.4356 94.1368 60.4381 101.896 57.0995 109.476C49.174 114.797 40.5782 116.238 31.3107 113.798C22.4473 111.562 14.1958 107.884 6.55626 102.762C5.33263 100.765 5.61657 99.0061 7.40809 97.4844C20.2222 91.5193 33.2609 86.0418 46.5237 81.0527C50.8717 74.5784 56.0168 68.7904 61.9622 63.688C67.9577 61.3844 74.0347 59.8979 80.1916 59.2291Z" fill="#ECBF70"/>
</svg>
